<svg id="Layer_1" data-name="Layer 1" xmlns="http://www.w3.org/2000/svg" viewBox="0 0 37.31 65.57"><defs><style>.cls-1{fill:#80858c;}.cls-2{fill:#81868a;}.cls-3{fill:#828589;}.cls-4{fill:#fbfcfc;}.cls-5{fill:none;}</style></defs><path class="cls-1" d="M48.37,51.08s7.05-2.6,10.62,3.58C59,50.54,52.14,45.14,48.37,51.08Z" transform="translate(-27.58 -13.35)"/><polygon class="cls-2" points="20.79 4.91 21.39 16.29 33.58 16.29 33.58 8.37 20.79 4.91"/><path class="cls-2" d="M30.9,26.33c-.92-4.39-.75-5.82,3.53-7.15,6.36-2,12.75-3.85,19.22-5.43a14.87,14.87,0,0,1,9.74,1.1A4.08,4.08,0,0,1,64.89,16V41.52l-.27.18c-4.59,1.07-9.25.47-13.87.46-3.57,0-3.47,1.52-2.18,4a9.29,9.29,0,0,0,10,4.86,53.49,53.49,0,0,0,5.2-1.7,2.66,2.66,0,0,1,1.13.06v10.2l-.35.3C51.73,64.9,39.43,57,37.59,47c-1.34-7.25-5.19-13.5-6.69-20.64" transform="translate(-27.58 -13.35)"/><path class="cls-3" d="M28.24,77.38c1.41-5.85,6.3-8.48,11-10.78A34.51,34.51,0,0,1,59,62.9c1.86.81,4.14.26,5.92,1.33V76.64a3.91,3.91,0,0,1-2.36,1.74h0c-2,.63-5.28.58-10.32.5-3.18,0-6.35-.06-9.53-.06h0l-12.19,0" transform="translate(-27.58 -13.35)"/><path class="cls-4" d="M64.8,41c0,3.07.46,6.17-.79,9.13A11.22,11.22,0,0,1,46,43.87c-.52-2.32-.28-3.56,2.9-3.27C54.13,41.1,59.48,40.88,64.8,41Z" transform="translate(-27.58 -13.35)"/><path class="cls-2" d="M27.58,78.84S29.4,58.15,64.89,62.65V77.33a3.73,3.73,0,0,1-2.36,1h0c-3.58.29-12.38.4-19.85.44h0c-6.62,0-12.19,0-12.19,0" transform="translate(-27.58 -13.35)"/><line class="cls-5" x1="37.31" y1="28.16" x2="37.31" y2="2.61"/><line class="cls-5" x1="37.31" y1="46.2" x2="37.31" y2="36"/></svg>