<svg id="Layer_1" data-name="Layer 1" xmlns="http://www.w3.org/2000/svg" viewBox="0 0 62.73 89.14"><defs><style>.cls-1{fill:none;}.cls-2{fill:#fcfcfc;}</style></defs><line class="cls-1" x1="47.83" y1="55.69" x2="47.83" y2="45.49"/><path class="cls-2" d="M48.53,3.87v.26l-.21-.26A.74.74,0,0,1,48.53,3.87Z" transform="translate(-17.06 -3.86)"/><path class="cls-2" d="M48.65,70v.07l-.22,0Z" transform="translate(-17.06 -3.86)"/><path class="cls-2" d="M79.79,62.29v16.1l-22.93-14L54.72,91.68,48.65,93l-.22,0-.23,0-6.07-1.28L40,64.44l-22.94,14V62.29L40,47.41s1.06-26.8,5.33-39l.06-.18A1.39,1.39,0,0,1,45.45,8c.07-.18.12-.34.17-.51s.07-.21.11-.31c.49-1.31,1.41-3.24,2.59-3.32,0,0,.08.12.21.35V3.87C49.36,4,50.31,5,51.31,7.78q.11.28.21.6c4.27,12.23,5.34,39,5.34,39l8,5.22Z" transform="translate(-17.06 -3.86)"/><path class="cls-2" d="M48.53,3.87v.26l-.21-.26A.74.74,0,0,1,48.53,3.87Z" transform="translate(-17.06 -3.86)"/><path class="cls-2" d="M48.43,70l-.23,0V70Z" transform="translate(-17.06 -3.86)"/></svg>