<svg id="Layer_1" data-name="Layer 1" xmlns="http://www.w3.org/2000/svg" viewBox="0 0 57.33 54.5"><defs><style>.cls-1{fill:none;}.cls-2{fill:#81858b;}.cls-3{fill:#82858b;}.cls-4{fill:#82858a;}.cls-5{fill:#fbfcfc;}</style></defs><line class="cls-1" x1="44.93" y1="40.72" x2="44.93" y2="30.52"/><path class="cls-2" d="M21.18,61a10,10,0,0,1,2,5.06" transform="translate(-19.96 -18.84)"/><path class="cls-3" d="M69,46.94c-4.42-1.42-9-2.42-13.22-4.36-5.25-2.44-10-2.16-15.14.17-3.3,1.51-6.93,2.31-10.36,3.54-1.58.56-2.92,1.07-3.3-1.26a8,8,0,0,0,.13-1c.35-10,.35-10,10.67-10l31.28,0Z" transform="translate(-19.96 -18.84)"/><path class="cls-4" d="M48.4,29.19c-3.15,0-6.3-.06-9.45,0-2.39.06-4.14-.08-4-3.34.09-2.95,1.68-2.9,3.84-3.12,2.85-.28,6.78,1.93,7.94-3.21.22-1,3.23-.87,3.45,0,1.27,4.91,5.07,3.12,8,3.25,2.43.11,4.06.23,4,3.43,0,3-1.64,3.07-3.81,3C55,29.14,51.72,29.19,48.4,29.19Z" transform="translate(-19.96 -18.84)"/><path class="cls-5" d="M22.92,45.29c2.39-.15,2.2,1.21,2,3.13C24.12,47.18,23.57,46.32,22.92,45.29Z" transform="translate(-19.96 -18.84)"/><path class="cls-2" d="M20,56.17c.17,2.85,4.12,17.18,6.54,17.17s18.43-1.65,18.43-1.65S49.6,44.48,44.53,47c-.31.15-24.73,6.31-24.57,9.15" transform="translate(-19.96 -18.84)"/><path class="cls-2" d="M52.72,47c.32.15,24.74,6.31,24.57,9.15s-4.11,17.18-6.54,17.17-18.42-1.65-18.42-1.65S47.65,44.48,52.72,47Z" transform="translate(-19.96 -18.84)"/></svg>