<svg id="Layer_1" data-name="Layer 1" xmlns="http://www.w3.org/2000/svg" viewBox="0 0 68.54 53.77"><defs><style>.cls-1{fill:#838588;}.cls-2{fill:#80858c;}.cls-3{fill:#81868a;}</style></defs><path class="cls-1" d="M81.06,41.63q0,11.4,0,22.8a.86.86,0,0,1-1.19.15C78.13,62,76.67,59.12,74,57.21c-3-2.56-2.53-4.38,1.2-5.46,1.8-.53,3.68-1,3.43-3.48s-2.44-2.64-4.16-2.44c-5.77.68-10.86-1.73-16.13-3.27-2.68-.77-4.78-8.45-2.58-10.91s2.4-5.32,2-8.31c-.31-2.56.25-4,3.19-3,2.86,3.71,1.31,8,1.53,12.06.17,3,.58,5.61,3.47,7.18,3,1.09,6.08.41,9.13.59C77.22,40.26,79.4,39.88,81.06,41.63Z" transform="translate(-12.53 -19.68)"/><path class="cls-2" d="M60.08,64.49c-3.82,0-7.65,0-11.47.12-4.91.16-9,.31-12.27-5.22-3.54-6-12.55-4.58-16.09,1.81-1.22,2.21-2.11,4-5.07,3.36-3.45-.75-2.53-3.5-2.55-5.61-.07-11.46,0-22.92,0-34.38,0-2.87.51-4.9,4-4.89,14,.05,27.94,0,41.91.08a5.53,5.53,0,0,1,1.78.74c-3.59,1.57.8,4.3-1,6.56-.91,1.16-.24,3.33-2.21,4.79-2.56,1.9.35,6.85,2.75,8.92C65.17,45.29,71.2,44,77,44.49c2.38.19,3.3,1.12,3.11,3.37-.17,2,.81,4.52-2.72,4.73a26.57,26.57,0,0,0-4.92,1.34c1.09,1.16,4.16,2.68,4.92,3.48-1.27-.3-1.64-.11-4.59,0-4.92.09-8.27,1-10.71,5A7,7,0,0,1,60.08,64.49Z" transform="translate(-12.53 -19.68)"/><circle class="cls-3" cx="16.44" cy="45.07" r="7.19"/><circle class="cls-3" cx="58.27" cy="46.58" r="7.19"/><path class="cls-2" d="M67.37,58.08s7-2.6,10.62,3.58C78,57.54,71.14,52.14,67.37,58.08Z" transform="translate(-12.53 -19.68)"/><polygon class="cls-3" points="54.84 5.59 55.43 16.96 67.63 16.96 67.63 9.05 54.84 5.59"/></svg>